<?xml version="1.0" encoding="UTF-8" standalone="no"?><svg width="119" height="36" viewBox="0 0 119 36" fill="none" xmlns="http://www.w3.org/2000/svg">
<g clip-path="url(#clip0_1059:6288)">
<path d="M35.946 16.5949C34.3311 14.9229 32.6964 13.2701 31.0421 11.637C26.9235 7.57575 22.68 3.57975 18.1924 0C20.0306 0.019125 21.8036 0.315 23.4709 0.844875C27.3938 4.34813 31.1726 8.04263 34.9043 11.799C35.4589 13.3133 35.8166 14.922 35.946 16.5938V16.5949ZM34.3845 25.4633C31.5765 22.5416 28.7021 19.7033 25.6804 17.0584C21.5111 13.4066 13.6508 6.02213 7.97739 8.71313C2.8564 11.1409 2.67077 20.574 2.3974 26.9809C0.822106 24.2503 -0.00484987 21.1524 2.13971e-05 18C2.13971e-05 11.0239 3.96902 4.97363 9.77177 1.98675C11.8193 2.65388 13.8139 3.87113 15.4395 4.89713C22.8296 9.55463 29.2658 15.8209 35.4555 22.4134C35.1889 23.4709 34.8289 24.4901 34.3845 25.4633ZM29.3164 31.9995C28.9423 31.6865 28.5647 31.3779 28.1835 31.0736C25.2878 28.7629 21.3356 25.668 17.6153 26.5241C14.2155 27.306 12.8183 31.3245 12.024 34.9841C10.5657 34.471 9.17984 33.7714 7.90089 32.9029C8.31264 29.2556 8.90214 25.3935 10.6065 22.3684C13.2109 17.748 17.6794 18.9124 21.4211 21.0949C25.2011 23.2999 28.6403 26.2384 31.8983 29.439C31.1257 30.3766 30.2607 31.234 29.3164 31.9984V31.9995Z" fill="white"/>
</g>
<path d="M60.796 29L56.26 20.88H53.292V29H50.52V9.148H57.996C59.8253 9.148 61.2907 9.71733 62.392 10.856C63.512 11.976 64.072 13.376 64.072 15.056C64.072 16.4933 63.6427 17.7253 62.784 18.752C61.9253 19.76 60.7493 20.404 59.256 20.684L63.988 29H60.796ZM53.292 18.416H57.492C58.612 18.416 59.5173 18.1173 60.208 17.52C60.8987 16.904 61.244 16.0827 61.244 15.056C61.244 14.0107 60.8987 13.18 60.208 12.564C59.5173 11.9293 58.612 11.612 57.492 11.612H53.292V18.416ZM68.7371 20.88H76.1011C76.0637 19.872 75.7277 19.0507 75.0931 18.416C74.4584 17.7627 73.5624 17.436 72.4051 17.436C71.3597 17.436 70.5011 17.7813 69.8291 18.472C69.1571 19.144 68.7931 19.9467 68.7371 20.88ZM76.4931 24.38L78.7611 25.164C78.3691 26.4147 77.6411 27.4413 76.5771 28.244C75.5131 29.028 74.2251 29.42 72.7131 29.42C70.8277 29.42 69.2224 28.776 67.8971 27.488C66.5904 26.1813 65.9371 24.4267 65.9371 22.224C65.9371 20.1707 66.5717 18.472 67.8411 17.128C69.1104 15.784 70.6224 15.112 72.3771 15.112C74.4117 15.112 75.9984 15.756 77.1371 17.044C78.2757 18.3133 78.8451 20.0213 78.8451 22.168C78.8451 22.504 78.8264 22.784 78.7891 23.008H68.6531C68.6717 24.2027 69.0637 25.1827 69.8291 25.948C70.6131 26.7133 71.5744 27.096 72.7131 27.096C74.6357 27.096 75.8957 26.1907 76.4931 24.38ZM80.1081 29L85.1201 22.14L80.2761 15.532H83.4681L86.7721 20.264L90.0201 15.532H93.1281L88.3401 22.14C88.6201 22.4947 89.4508 23.6333 90.8321 25.556C92.2135 27.4787 93.0348 28.6267 93.2961 29H90.1321L86.6601 24.044L83.2441 29H80.1081ZM101.205 17.548C100.066 17.548 99.0953 17.9587 98.2926 18.78C97.5086 19.6013 97.1166 20.7587 97.1166 22.252C97.1166 23.7267 97.5086 24.884 98.2926 25.724C99.0953 26.564 100.075 26.984 101.233 26.984C102.353 26.984 103.202 26.704 103.781 26.144C104.378 25.584 104.779 24.94 104.985 24.212L107.309 25.22C106.935 26.34 106.226 27.32 105.181 28.16C104.154 29 102.838 29.42 101.233 29.42C99.2726 29.42 97.6486 28.7387 96.3606 27.376C95.0726 26.0133 94.4286 24.3053 94.4286 22.252C94.4286 20.1613 95.0726 18.4533 96.3606 17.128C97.6486 15.784 99.2633 15.112 101.205 15.112C102.847 15.112 104.173 15.532 105.181 16.372C106.207 17.212 106.879 18.22 107.197 19.396L104.817 20.404C104.611 19.62 104.219 18.948 103.641 18.388C103.062 17.828 102.25 17.548 101.205 17.548ZM113.924 11.276V15.532H116.836V17.912H113.924V24.912C113.924 25.5467 114.064 26.0133 114.344 26.312C114.643 26.6107 115.128 26.76 115.8 26.76C116.192 26.76 116.538 26.7227 116.836 26.648V28.888C116.388 29.056 115.791 29.14 115.044 29.14C113.887 29.14 112.972 28.804 112.3 28.132C111.628 27.46 111.292 26.5173 111.292 25.304V17.912H108.716V15.532H109.444C110.135 15.532 110.648 15.3453 110.984 14.972C111.339 14.58 111.516 14.076 111.516 13.46V11.276H113.924Z" fill="white"/>
<defs>
<clipPath id="clip0_1059:6288">
<rect width="36" height="36" fill="white"/>
</clipPath>
</defs>
</svg>
